# xmcd
#
# Track frame offsets:
#  150
#  13470
#  24767
#  35742
#  49007
#  62727
#  78252
#  90852
#  101790
#  113195
#
# Disc length: 1673 seconds
#
# Revision: 0
# Processed by: cddbd v1.4PL0 Copyright (c) Steve Scherf et al.
# Submitted via: AltoMP3_Maker 3.0
#
DISCID=7506870a
DTITLE=Various Artist - Country Nashville Stars
DYEAR=1900
DGENRE=
TTITLE0=Ruby, Don't Take Your Love to Town
TTITLE1=Night Life
TTITLE2=Can't Even Get The Blues
TTITLE3=Raining in my Heart
TTITLE4=Rose Garden
TTITLE5=Country Bumpkin
TTITLE6=White Lightning
TTITLE7=It wasn't God who made Honky-Tonk Angels
TTITLE8=Have I been Away Too Long
TTITLE9=Wild Side of Life
EXTD=
EXTT0=
EXTT1=
EXTT2=
EXTT3=
EXTT4=
EXTT5=
EXTT6=
EXTT7=
EXTT8=
EXTT9=
PLAYORDER=
